<?xml version="1.0" encoding="UTF-8" standalone="no"?>
<!-- Created with Inkscape (http://www.inkscape.org/) -->

<svg
   xmlns:dc="http://purl.org/dc/elements/1.1/"
   xmlns:cc="http://creativecommons.org/ns#"
   xmlns:rdf="http://www.w3.org/1999/02/22-rdf-syntax-ns#"
   xmlns:svg="http://www.w3.org/2000/svg"
   xmlns="http://www.w3.org/2000/svg"
   xmlns:sodipodi="http://sodipodi.sourceforge.net/DTD/sodipodi-0.dtd"
   xmlns:inkscape="http://www.inkscape.org/namespaces/inkscape"
   width="5mm"
   height="7mm"
   viewBox="0 0 50 70"
   version="1.1"
   id="svg898"
   sodipodi:docname="eighth.svg"
   inkscape:version="0.92.2 2405546, 2018-03-11">
  <defs
     id="defs892" />
  <sodipodi:namedview
     id="base"
     pagecolor="#ffffff"
     bordercolor="#666666"
     borderopacity="1.0"
     inkscape:pageopacity="0.0"
     inkscape:pageshadow="2"
     inkscape:zoom="45.254834"
     inkscape:cx="13.701134"
     inkscape:cy="10.101288"
     inkscape:document-units="mm"
     inkscape:current-layer="layer1"
     showgrid="false"
     fit-margin-top="1"
     fit-margin-left="1"
     fit-margin-right="1"
     fit-margin-bottom="1"
     inkscape:window-width="3200"
     inkscape:window-height="1767"
     inkscape:window-x="0"
     inkscape:window-y="33"
     inkscape:window-maximized="0" />
  <metadata
     id="metadata895">
    <rdf:RDF>
      <cc:Work
         rdf:about="">
        <dc:format>image/svg+xml</dc:format>
        <dc:type
           rdf:resource="http://purl.org/dc/dcmitype/StillImage" />
        <dc:title></dc:title>
      </cc:Work>
    </rdf:RDF>
  </metadata>
  <g
     inkscape:label="Layer 1"
     inkscape:groupmode="layer"
     id="layer1"
     transform="translate(222.40025,-134.91451)">
    <path
       inkscape:connector-curvature="0"
       style="fill:currentColor;stroke-width:0.0527105"
       d="m -194.97365,156.79886 v -13.1777 h 0.738 c 0,10.4367 11.0165,17.7108 11.0165,28.1475 0,3.7424 -0.843,7.4849 -2.2138,10.9638 -0.211,0.369 -0.58,0.58 -0.949,0.58 -0.633,0 -1.2651,-0.527 -1.107,-1.3178 1.3705,-3.2153 2.2139,-6.6942 2.2139,-10.2258 0,-5.5346 -5.113,-11.0165 -8.9608,-14.9698 z"
       id="path60" />
    <rect
       style="fill:currentColor;stroke-width:17.65189362"
       x="-196.62682"
       y="143.26936"
       width="2.3999999"
       height="43.508587"
       ry="0.35184276"
       id="rect62" />
    <path
       inkscape:connector-curvature="0"
       style="fill:currentColor;stroke-width:0.0527105"
       d="m -199.77415,182.22246 c 2.9518,0 5.5346,1.4759 5.5346,4.5331 0,4.7439 -6.2199,9.8041 -11.8072,9.8041 -2.9518,0 -5.5346,-1.4758 -5.5346,-4.5331 0,-4.7439 6.2198,-9.8041 11.8072,-9.8041 z"
       id="path64" />
  </g>
</svg>
