<?xml version="1.0" encoding="UTF-8" standalone="no"?>
<!-- Created with Inkscape (http://www.inkscape.org/) -->

<svg
   xmlns:dc="http://purl.org/dc/elements/1.1/"
   xmlns:cc="http://creativecommons.org/ns#"
   xmlns:rdf="http://www.w3.org/1999/02/22-rdf-syntax-ns#"
   xmlns:svg="http://www.w3.org/2000/svg"
   xmlns="http://www.w3.org/2000/svg"
   xmlns:sodipodi="http://sodipodi.sourceforge.net/DTD/sodipodi-0.dtd"
   xmlns:inkscape="http://www.inkscape.org/namespaces/inkscape"
   width="5mm"
   height="7mm"
   viewBox="0 0 50 70"
   version="1.1"
   id="svg898"
   sodipodi:docname="half.svg"
   inkscape:version="0.92.2 2405546, 2018-03-11">
  <defs
     id="defs892" />
  <sodipodi:namedview
     id="base"
     pagecolor="#ffffff"
     bordercolor="#666666"
     borderopacity="1.0"
     inkscape:pageopacity="0.0"
     inkscape:pageshadow="2"
     inkscape:zoom="22.627417"
     inkscape:cx="6.4344697"
     inkscape:cy="30.411677"
     inkscape:document-units="mm"
     inkscape:current-layer="layer1"
     showgrid="false"
     fit-margin-top="1"
     fit-margin-left="1"
     fit-margin-right="1"
     fit-margin-bottom="1"
     inkscape:window-width="1596"
     inkscape:window-height="1763"
     inkscape:window-x="0"
     inkscape:window-y="33"
     inkscape:window-maximized="0" />
  <metadata
     id="metadata895">
    <rdf:RDF>
      <cc:Work
         rdf:about="">
        <dc:format>image/svg+xml</dc:format>
        <dc:type
           rdf:resource="http://purl.org/dc/dcmitype/StillImage" />
        <dc:title></dc:title>
      </cc:Work>
    </rdf:RDF>
  </metadata>
  <g
     inkscape:label="Layer 1"
     inkscape:groupmode="layer"
     id="layer1"
     transform="translate(222.40025,-134.91451)">
    <g
       id="g1524"
       transform="translate(0.7954093,0.66377388)">
      <rect
         id="rect52"
         ry="0.33817077"
         height="40.902199"
         width="2.3899033"
         y="142.60556"
         x="-191.47981"
         style="fill:currentColor;stroke-width:17.26909637" />
      <path
         id="path54"
         d="m -190.55263,185.19567 c 0,-1.26505 -1.0015,-2.21384 -2.26655,-2.21384 -2.16113,0 -11.06921,6.11442 -12.43969,7.74844 -0.36897,0.42169 -0.57981,1.0015 -0.57981,1.52861 0,1.26505 1.0015,2.21384 2.26655,2.21384 2.16113,0 11.06921,-6.11442 12.43968,-7.74845 0.36898,-0.42168 0.57982,-1.0015 0.57982,-1.5286 z m -2.68824,-3.63703 c 3.26806,0 4.16413,1.73945 4.16413,3.58432 0,1.79215 -1.21234,6.11442 -4.05871,8.012 -3.26805,2.21384 -7.5376,2.74095 -10.015,2.74095 -3.26805,0 -4.16413,-1.73945 -4.16413,-3.58432 0,-1.79216 1.15963,-6.11442 4.006,-8.012 3.26806,-2.21384 7.59032,-2.74095 10.06771,-2.74095 z"
         style="fill:currentColor;stroke-width:0.05271053"
         inkscape:connector-curvature="0" />
    </g>
  </g>
</svg>
